<svg xmlns="http://www.w3.org/2000/svg" width="260" height="330" viewBox="0 0 260 330"><defs><linearGradient id="m" x1="0" x2="1"><stop offset="0" stop-color="#23381f"/><stop offset=".5" stop-color="#8bc46c"/><stop offset="1" stop-color="#22351d"/></linearGradient><filter id="s"><feDropShadow dx="0" dy="8" stdDeviation="6" flood-color="#001829" flood-opacity=".55"/></filter></defs><g filter="url(#s)"><path d="M130 8 C162 54 164 214 130 314 C96 214 98 54 130 8Z" fill="url(#m)"/><path d="M26 132 L120 104 L112 166 L16 190Z" fill="#4a6b36"/><path d="M234 132 L140 104 L148 166 L244 190Z" fill="#4a6b36"/><path d="M84 240 L124 204 L118 288 L70 318Z" fill="#263b22"/><path d="M176 240 L136 204 L142 288 L190 318Z" fill="#263b22"/><ellipse cx="130" cy="72" rx="23" ry="40" fill="#c8fff6"/><path d="M130 12 L148 104 L130 138 L112 104Z" fill="#ff5555"/><circle cx="130" cy="24" r="9" fill="#ffffff"/></g></svg>