<svg xmlns="http://www.w3.org/2000/svg" width="300" height="300" viewBox="0 0 300 300"><defs><linearGradient id="m" x1="0" x2="1"><stop offset="0" stop-color="#1b324c"/><stop offset=".5" stop-color="#9ddcff"/><stop offset="1" stop-color="#1b324c"/></linearGradient><filter id="s"><feDropShadow dx="0" dy="8" stdDeviation="6" flood-color="#001829" flood-opacity=".55"/></filter></defs><g filter="url(#s)"><path d="M150 16 C174 60 176 178 150 274 C124 178 126 60 150 16Z" fill="url(#m)"/><path d="M28 120 L132 102 L126 146 L18 166Z" fill="#344d72"/><path d="M272 120 L168 102 L174 146 L282 166Z" fill="#344d72"/><path d="M70 58 C92 82 94 208 72 276 L46 276 C68 198 64 104 50 68Z" fill="#566d89"/><path d="M230 58 C208 82 206 208 228 276 L254 276 C232 198 236 104 250 68Z" fill="#566d89"/><ellipse cx="150" cy="74" rx="20" ry="38" fill="#b8f4ff"/><path d="M135 134 L165 134 L158 230 L142 230Z" fill="#f1f7ff"/></g></svg>