<svg xmlns="http://www.w3.org/2000/svg" width="256" height="320" viewBox="0 0 256 320"><defs><linearGradient id="metal" x1="0" x2="1"><stop offset="0" stop-color="#5e7389"/><stop offset=".5" stop-color="#f3f7fb"/><stop offset="1" stop-color="#40566e"/></linearGradient><filter id="s"><feDropShadow dx="0" dy="8" stdDeviation="6" flood-color="#001829" flood-opacity=".55"/></filter></defs><g filter="url(#s)"><path d="M128 10 C157 52 158 204 128 300 C98 204 99 52 128 10Z" fill="url(#metal)"/><path d="M24 134 L118 110 L112 156 L18 178Z" fill="#2c6ca3"/><path d="M232 134 L138 110 L144 156 L238 178Z" fill="#2c6ca3"/><path d="M86 224 L122 202 L118 260 L72 286Z" fill="#263b52"/><path d="M170 224 L134 202 L138 260 L184 286Z" fill="#263b52"/><ellipse cx="128" cy="72" rx="22" ry="42" fill="#9ee8ff" opacity=".86"/><path d="M128 12 L142 96 L128 128 L114 96Z" fill="#ffdd5a"/><circle cx="128" cy="24" r="8" fill="#ffffff"/></g></svg>