<svg xmlns="http://www.w3.org/2000/svg" width="300" height="300" viewBox="0 0 300 300"><defs><linearGradient id="m" x1="0" x2="1"><stop offset="0" stop-color="#102a58"/><stop offset=".5" stop-color="#3e83d8"/><stop offset="1" stop-color="#102a58"/></linearGradient><filter id="s"><feDropShadow dx="0" dy="8" stdDeviation="6" flood-color="#001829" flood-opacity=".55"/></filter></defs><g filter="url(#s)"><path d="M150 14 C180 62 180 190 150 282 C120 190 120 62 150 14Z" fill="url(#m)"/><path d="M10 142 L140 104 L128 162 L22 196Z" fill="#173c84"/><path d="M290 142 L160 104 L172 162 L278 196Z" fill="#173c84"/><path d="M88 222 L142 198 L134 268 L70 292Z" fill="#102a58"/><path d="M212 222 L158 198 L166 268 L230 292Z" fill="#102a58"/><ellipse cx="150" cy="78" rx="24" ry="42" fill="#a6f0ff"/><path d="M150 18 L166 96 L150 126 L134 96Z" fill="#ffffff" opacity=".88"/><circle cx="62" cy="166" r="12" fill="#ffffff"/><circle cx="238" cy="166" r="12" fill="#ffffff"/></g></svg>